# xmcd
#
# Track frame offsets:
#	150
#	13057
#	30976
#	53061
#	71024
#	85241
#	106044
#	125172
#	138953
#	150248
#
# Disc length: 2251 seconds
#
# Revision: 1
# Processed by: cddbd v1.5.2PL0 Copyright (c) Steve Scherf et al.
# Submitted via: audiograbber 1.81.03
#
DISCID=7508c90a
DTITLE=Erik`Miller - Dr Jekyll And Mr Wryly
DYEAR=2007
DGENRE=Country
TTITLE0=Alison
TTITLE1=Song For Copernicus
TTITLE2=Days That Are Smiles
TTITLE3=Easy To Be
TTITLE4=Passing Shadow
TTITLE5=Only Thunder
TTITLE6=She Says
TTITLE7=Eyes
TTITLE8=Late Night Nancy
TTITLE9=All That They Become
EXTD=
EXTT0=
EXTT1=
EXTT2=
EXTT3=
EXTT4=
EXTT5=
EXTT6=
EXTT7=
EXTT8=
EXTT9=
PLAYORDER=
